<?xml version="1.0" encoding="utf-8"?>
<!-- Generator: Adobe Illustrator 16.0.4, SVG Export Plug-In . SVG Version: 6.00 Build 0)  -->
<!DOCTYPE svg PUBLIC "-//W3C//DTD SVG 1.1//EN" "http://www.w3.org/Graphics/SVG/1.1/DTD/svg11.dtd">
<svg version="1.1" id="Layer_1" xmlns="http://www.w3.org/2000/svg" xmlns:xlink="http://www.w3.org/1999/xlink" x="0px" y="0px"
	 width="26px" height="26px" viewBox="0 0 26 26" enable-background="new 0 0 26 26" xml:space="preserve">
<path fill="#FFFFFF" d="M19.982,18.904l-2.857-2.896c0.775-1.133,1.232-2.509,1.232-3.99c0-3.87-3.109-7.018-6.932-7.018
	c-3.821,0-6.93,3.148-6.93,7.018c0,3.873,3.108,7.019,6.93,7.019c1.053,0,2.051-0.239,2.945-0.667l3.068,3.108
	c0.33,0.334,0.771,0.519,1.242,0.519c0.481,0,0.938-0.19,1.278-0.539C20.664,20.75,20.673,19.604,19.982,18.904z M7.27,12.02
	c0-2.322,1.866-4.211,4.158-4.211s4.158,1.889,4.158,4.211s-1.865,4.212-4.158,4.212C9.136,16.23,7.27,14.342,7.27,12.02z"/>
<path fill="#FFFFFF" d="M16.995,5.001v-1h7v1H16.995z"/>
<path fill="#FFFFFF" d="M20.823,8.001h-1v-7h1V8.001z"/>
</svg>
