<?xml version="1.0" encoding="utf-8"?>
<!-- Generator: Adobe Illustrator 16.0.0, SVG Export Plug-In . SVG Version: 6.00 Build 0)  -->
<!DOCTYPE svg PUBLIC "-//W3C//DTD SVG 1.1//EN" "http://www.w3.org/Graphics/SVG/1.1/DTD/svg11.dtd">
<svg version="1.1" id="Layer_1" xmlns="http://www.w3.org/2000/svg" xmlns:xlink="http://www.w3.org/1999/xlink" x="0px" y="0px"
	 width="26px" height="26px" viewBox="0 0 26 26" enable-background="new 0 0 26 26" xml:space="preserve">
<g>
	<g>
		<path fill-rule="evenodd" clip-rule="evenodd" fill="#445978" d="M24.103,1.577H8.334c-0.34,0-0.617,0.283-0.617,0.631v8.369
			h1.233V2.838h11.538v8.883c0,0.248,0.143,0.473,0.363,0.575l2.633,1.217v7.802h-7.767v1.262h8.384c0.34,0,0.615-0.282,0.615-0.631
			V2.208C24.718,1.86,24.442,1.577,24.103,1.577z M23.485,12.129l-1.762-0.815V2.839h1.762V12.129z"/>
	</g>
</g>
<path fill="#445978" d="M7.715,10.577l-6.72,6.464v4.536h9.28l6.721-6.404v-4.596H7.715z M11.395,18.979l-1.601,1.528h-7.68v-3.056
	l2.24-2.139h7.041V18.979z"/>
</svg>
