<?xml version="1.0" encoding="utf-8"?>
<!-- Generator: Adobe Illustrator 16.0.0, SVG Export Plug-In . SVG Version: 6.00 Build 0)  -->
<!DOCTYPE svg PUBLIC "-//W3C//DTD SVG 1.1//EN" "http://www.w3.org/Graphics/SVG/1.1/DTD/svg11.dtd">
<svg version="1.1" id="Layer_1" xmlns="http://www.w3.org/2000/svg" xmlns:xlink="http://www.w3.org/1999/xlink" x="0px" y="0px"
	 width="20px" height="20px" viewBox="0 0 20 20" enable-background="new 0 0 20 20" xml:space="preserve">
<path fill="#A6B6D0" d="M14.198,14.829H3.282V6.97h2.515c0,0,0.616-0.862,1.867-1.671H2.442c-0.464,0-0.84,0.372-0.84,0.836v9.53
	c0,0.459,0.376,0.835,0.84,0.835h12.596c0.464,0,0.84-0.372,0.84-0.835v-4.768l-1.68,1.373V14.829z M12.799,8.098v2.795l5.599-4.178
	L12.799,2.5v2.611c-6.771,0-6.998,7.186-6.998,7.186C7.717,9.17,9.125,8.098,12.799,8.098z"/>
</svg>
