<?xml version="1.0" encoding="utf-8"?>
<!-- Generator: Adobe Illustrator 16.0.0, SVG Export Plug-In . SVG Version: 6.00 Build 0)  -->
<!DOCTYPE svg PUBLIC "-//W3C//DTD SVG 1.1//EN" "http://www.w3.org/Graphics/SVG/1.1/DTD/svg11.dtd">
<svg version="1.1" id="Layer_1" xmlns="http://www.w3.org/2000/svg" xmlns:xlink="http://www.w3.org/1999/xlink" x="0px" y="0px"
	 width="20px" height="20px" viewBox="0 0 20 20" enable-background="new 0 0 20 20" xml:space="preserve">
<path fill="#445978" d="M19.146,17.471L11.676,10l7.471-7.471c0.463-0.463,0.463-1.215,0-1.679c-0.463-0.463-1.215-0.463-1.679,0
	L9.997,8.322L2.526,0.851c-0.463-0.463-1.215-0.463-1.679,0c-0.464,0.463-0.464,1.215,0,1.679L8.318,10l-7.471,7.47
	c-0.464,0.465-0.464,1.215,0,1.68c0.464,0.463,1.215,0.463,1.679,0l7.471-7.471l7.471,7.471c0.464,0.463,1.216,0.463,1.679,0
	C19.609,18.686,19.609,17.936,19.146,17.471z"/>
</svg>
