<?xml version="1.0" encoding="utf-8"?>
<!-- Generator: Adobe Illustrator 16.0.4, SVG Export Plug-In . SVG Version: 6.00 Build 0)  -->
<!DOCTYPE svg PUBLIC "-//W3C//DTD SVG 1.1//EN" "http://www.w3.org/Graphics/SVG/1.1/DTD/svg11.dtd">
<svg version="1.1" id="Layer_1" xmlns="http://www.w3.org/2000/svg" xmlns:xlink="http://www.w3.org/1999/xlink" x="0px" y="0px"
	 width="26px" height="26px" viewBox="0 0 26 26" enable-background="new 0 0 26 26" xml:space="preserve">
<path fill="#FFFFFF" d="M21.5,14.546v-2.125l-2.54-1.059c-0.07-0.199-0.146-0.392-0.236-0.581l1.024-2.553l-1.502-1.502l-2.53,1.042
	c-0.192-0.094-0.39-0.172-0.593-0.245L14.046,5h-2.125l-1.05,2.515c-0.212,0.075-0.415,0.153-0.617,0.249L7.729,6.75L6.227,8.252
	l1.029,2.502c-0.1,0.206-0.181,0.415-0.258,0.631L4.5,12.454v2.125L7,15.621c0.077,0.216,0.16,0.426,0.26,0.631l-1.011,2.52
	l1.503,1.502l2.509-1.033c0.201,0.096,0.407,0.172,0.618,0.244L11.954,22h2.125l1.052-2.527c0.201-0.074,0.4-0.154,0.592-0.245
	l2.548,1.021l1.503-1.502l-1.046-2.535c0.089-0.191,0.162-0.385,0.232-0.582L21.5,14.546z M12.983,16.688
	c-1.76,0-3.188-1.428-3.188-3.188s1.428-3.188,3.188-3.188s3.188,1.428,3.188,3.188S14.743,16.688,12.983,16.688z"/>
</svg>
