<?xml version="1.0" encoding="utf-8"?>
<!-- Generator: Adobe Illustrator 16.0.0, SVG Export Plug-In . SVG Version: 6.00 Build 0)  -->
<!DOCTYPE svg PUBLIC "-//W3C//DTD SVG 1.1//EN" "http://www.w3.org/Graphics/SVG/1.1/DTD/svg11.dtd">
<svg version="1.1" id="Layer_1" xmlns="http://www.w3.org/2000/svg" xmlns:xlink="http://www.w3.org/1999/xlink" x="0px" y="0px"
	 width="20px" height="20px" viewBox="0 0 20 20" enable-background="new 0 0 20 20" xml:space="preserve">
<g>
	<g>
		<path fill="#445978" d="M16.787,0.36H2.247v16.068c0,2.838,2.427,2.936,2.427,2.936s6.683,0,9.35,0c2.666,0,2.764-2.52,2.764-2.52
			V8.569h1.716L16.787,0.36z M15.384,16.898c0,0-0.033,1.115-1.296,1.115c-1.262,0-9.359,0-9.359,0s-1.066-0.129-1.066-1.211
			s0-15.067,0-15.067h11.722V16.898z M13.21,4.446H5.849v0.675h7.361V4.446z M13.21,7.554H5.849v0.653h7.361V7.554z M13.21,10.715
			H5.849v0.676h7.361V10.715z M13.21,13.822H5.849v0.654h7.361V13.822z"/>
	</g>
</g>
</svg>
