<?xml version="1.0" encoding="utf-8"?>
<!-- Generator: Adobe Illustrator 16.0.0, SVG Export Plug-In . SVG Version: 6.00 Build 0)  -->
<!DOCTYPE svg PUBLIC "-//W3C//DTD SVG 1.1//EN" "http://www.w3.org/Graphics/SVG/1.1/DTD/svg11.dtd">
<svg version="1.1" id="Layer_1" xmlns="http://www.w3.org/2000/svg" xmlns:xlink="http://www.w3.org/1999/xlink" x="0px" y="0px"
	 width="28px" height="25px" viewBox="0 0 28 25" enable-background="new 0 0 28 25" xml:space="preserve">
<g>
	<g>
		<path fill="#445978" d="M5.393,16.28h8v-1h-8V16.28z M5.393,12.28h8v-1h-8V12.28z M2.393,2.28h14v2h2v-4h-18v23h10v-2h-8V2.28z
			 M17.326,19.97l6.816-10.63c-0.133-0.13-0.262-0.234-0.439-0.327c-0.129-0.104-0.307-0.197-0.475-0.24l-6.791,10.625l0.178,0.7
			L17.326,19.97z M5.393,8.28h8v-1h-8V8.28z M17.658,21.376L15.9,22.367c0,0-0.142-0.286-0.447-0.483
			c-0.307-0.197-0.605-0.238-0.605-0.238l0.176-1.967l0.02-0.03l7.145-11.177c-0.627-0.101-1.225,0.057-1.535,0.441l-6.517,10.194
			l-0.334,5.225c-0.009,0.081,0.022,0.101,0.092,0.06l4.654-2.443l6.518-10.194c0.195-0.439,0.111-1.055-0.215-1.591L17.658,21.376z
			 M26.406,4.75c-1.281-0.803-2.889-0.32-3.668,0.933L21.463,7.68c0,0,1.219-0.927,2.967,0.197c1.98,1.232,1.465,2.612,1.465,2.612
			l1.252-1.99C27.936,7.296,27.723,5.599,26.406,4.75z"/>
	</g>
</g>
</svg>
