<?xml version="1.0" encoding="utf-8"?>
<!-- Generator: Adobe Illustrator 16.0.0, SVG Export Plug-In . SVG Version: 6.00 Build 0)  -->
<!DOCTYPE svg PUBLIC "-//W3C//DTD SVG 1.1//EN" "http://www.w3.org/Graphics/SVG/1.1/DTD/svg11.dtd">
<svg version="1.1" id="Layer_1" xmlns="http://www.w3.org/2000/svg" xmlns:xlink="http://www.w3.org/1999/xlink" x="0px" y="0px"
	 width="20px" height="20px" viewBox="0 0 20 20" enable-background="new 0 0 20 20" xml:space="preserve">
<g>
	<g>
		<path fill="#F68E1E" d="M16.568,4.391c-0.1-0.375-0.167-0.583-0.167-0.583C16.293,3.42,16.019,3.42,15.61,3.354l-2.212-0.279
			c-0.275-0.046-0.275-0.046-0.383-0.283C12.652,1.975,12.54,1.5,12.145,1.5H7.854c-0.396,0-0.504,0.475-0.866,1.295
			C6.879,3.029,6.879,3.029,6.604,3.079L4.388,3.358C3.984,3.424,3.692,3.462,3.584,3.85c0,0-0.05,0.17-0.154,0.542
			C3.297,4.887,3.242,4.833,3.7,4.833h12.598C16.756,4.836,16.706,4.887,16.568,4.391z M15.14,6.166H4.858
			c-0.691,0-0.725,0.092-0.683,0.612l0.778,10.106C5.021,17.396,5.071,17.5,5.684,17.5h8.631c0.612,0,0.663-0.104,0.729-0.616
			l0.778-10.106C15.864,6.253,15.831,6.166,15.14,6.166z"/>
	</g>
</g>
</svg>
