<?xml version="1.0" encoding="utf-8"?>
<!-- Generator: Adobe Illustrator 16.0.0, SVG Export Plug-In . SVG Version: 6.00 Build 0)  -->
<!DOCTYPE svg PUBLIC "-//W3C//DTD SVG 1.1//EN" "http://www.w3.org/Graphics/SVG/1.1/DTD/svg11.dtd">
<svg version="1.1" id="Layer_1" xmlns="http://www.w3.org/2000/svg" xmlns:xlink="http://www.w3.org/1999/xlink" x="0px" y="0px"
	 width="20px" height="20px" viewBox="0 0 20 20" enable-background="new 0 0 20 20" xml:space="preserve">
<g>
	<g>
		<path fill="#445978" d="M12.405,0L11.71,0.015H4.277c-0.98,0-1.774,0.807-1.774,1.803v16.38C2.503,19.193,3.297,20,4.277,20
			h11.444c0.98,0,1.774-0.807,1.774-1.804v-12.2l0.001-0.707L12.405,0z M15.919,18.196c0,0.11-0.088,0.2-0.197,0.2H4.277
			c-0.109,0-0.197-0.09-0.197-0.2V1.817c0-0.109,0.088-0.199,0.197-0.199h7.433v4.378h4.209V18.196z M10,10.124L8.709,8.185H6.531
			l2.38,3.573l-2.862,4.298h4.73l-0.77-1.271H9.072L10,13.393l1.773,2.663h2.177l-2.862-4.298l2.379-3.573H11.29L10,10.124z"/>
	</g>
</g>
</svg>
