<?xml version="1.0" encoding="utf-8"?>
<!-- Generator: Adobe Illustrator 16.0.0, SVG Export Plug-In . SVG Version: 6.00 Build 0)  -->
<!DOCTYPE svg PUBLIC "-//W3C//DTD SVG 1.1//EN" "http://www.w3.org/Graphics/SVG/1.1/DTD/svg11.dtd">
<svg version="1.1" id="Layer_1" xmlns="http://www.w3.org/2000/svg" xmlns:xlink="http://www.w3.org/1999/xlink" x="0px" y="0px"
	 width="20px" height="20px" viewBox="0 0 20 20" enable-background="new 0 0 20 20" xml:space="preserve">
<g>
	<g>
		<path fill="#445978" d="M17.525,14.289L11.324,3.037c-0.364-0.66-0.908-1.039-1.495-1.039c-0.586,0-1.131,0.378-1.496,1.039
			l-6.2,11.252c-0.364,0.658-0.404,1.344-0.111,1.875c0.293,0.533,0.879,0.838,1.606,0.838h12.4c0.729,0,1.312-0.305,1.605-0.838
			C17.93,15.633,17.889,14.949,17.525,14.289z M16.508,15.482c-0.043,0.076-0.207,0.154-0.479,0.154h-12.4
			c-0.271,0-0.435-0.078-0.477-0.154c-0.042-0.078-0.025-0.266,0.11-0.512l6.2-11.251c0.135-0.246,0.282-0.356,0.367-0.356
			s0.231,0.11,0.367,0.355l6.201,11.251C16.531,15.217,16.549,15.404,16.508,15.482z M9.867,5.957c-0.306,0-0.558,0.108-0.749,0.322
			c-0.188,0.21-0.283,0.499-0.283,0.859c0,0.232,0.016,0.615,0.048,1.14l0.172,2.689c0.034,0.373,0.092,0.648,0.176,0.839
			c0.106,0.24,0.303,0.367,0.57,0.367c0.261,0,0.459-0.129,0.574-0.373c0.093-0.199,0.152-0.469,0.179-0.824l0.23-2.76
			c0.025-0.258,0.037-0.518,0.037-0.771c0-0.453-0.057-0.794-0.173-1.046C10.555,6.198,10.342,5.957,9.867,5.957z M9.824,12.766
			c-0.275,0-0.511,0.102-0.701,0.301s-0.287,0.445-0.287,0.729c0,0.322,0.104,0.582,0.308,0.766c0.196,0.18,0.429,0.27,0.691,0.27
			c0.26,0,0.49-0.092,0.685-0.273c0.201-0.188,0.302-0.443,0.302-0.762c0-0.285-0.098-0.531-0.293-0.73
			C10.334,12.865,10.098,12.766,9.824,12.766z"/>
	</g>
</g>
</svg>
