<?xml version="1.0" encoding="utf-8"?>
<!-- Generator: Adobe Illustrator 16.0.4, SVG Export Plug-In . SVG Version: 6.00 Build 0)  -->
<!DOCTYPE svg PUBLIC "-//W3C//DTD SVG 1.1//EN" "http://www.w3.org/Graphics/SVG/1.1/DTD/svg11.dtd">
<svg version="1.1" id="Layer_1" xmlns="http://www.w3.org/2000/svg" xmlns:xlink="http://www.w3.org/1999/xlink" x="0px" y="0px"
	 width="20px" height="20px" viewBox="0 0 20 20" enable-background="new 0 0 20 20" xml:space="preserve">
<path fill="#445978" d="M10,0.502c-5.237,0-9.498,4.261-9.498,9.498c0,5.238,4.261,9.498,9.498,9.498
	c5.236,0,9.498-4.26,9.498-9.498C19.498,4.763,15.236,0.502,10,0.502z M16.059,4.571l-5.267,4.152V1.899
	C12.877,2.101,14.733,3.092,16.059,4.571z M1.859,10c0-4.299,3.35-7.827,7.575-8.119v8.232h0.039l-0.034,0.027l5.275,6.49
	c-1.331,0.949-2.958,1.51-4.714,1.51C5.511,18.141,1.859,14.49,1.859,10z M15.751,15.756l-4.564-5.616l5.691-4.487
	c0.798,1.259,1.263,2.75,1.263,4.348C18.141,12.246,17.227,14.281,15.751,15.756z"/>
</svg>
