<?xml version="1.0" encoding="utf-8"?>
<!-- Generator: Adobe Illustrator 16.0.0, SVG Export Plug-In . SVG Version: 6.00 Build 0)  -->
<!DOCTYPE svg PUBLIC "-//W3C//DTD SVG 1.1//EN" "http://www.w3.org/Graphics/SVG/1.1/DTD/svg11.dtd">
<svg version="1.1" id="Layer_1" xmlns="http://www.w3.org/2000/svg" xmlns:xlink="http://www.w3.org/1999/xlink" x="0px" y="0px"
	 width="25px" height="20px" viewBox="0 0 25 20" enable-background="new 0 0 25 20" xml:space="preserve">
<g>
	<g>
		<path fill="#445978" d="M5.999,15.855l-1.127,1.137v-6.715c0-0.489-0.393-0.885-0.878-0.885c-0.484,0-0.878,0.396-0.878,0.885
			v6.714l-1.127-1.136c-0.343-0.346-0.898-0.346-1.241,0s-0.343,0.906,0,1.252L3.37,19.75c0.043,0.044,0.09,0.082,0.14,0.116
			c0.01,0.007,0.021,0.011,0.029,0.017c0.039,0.023,0.08,0.047,0.122,0.064c0.017,0.006,0.034,0.01,0.051,0.016
			c0.037,0.013,0.074,0.025,0.113,0.033c0.026,0.005,0.053,0.006,0.079,0.008c0.03,0.004,0.06,0.01,0.09,0.01
			c0.028,0,0.056-0.006,0.083-0.008c0.028-0.003,0.059-0.004,0.087-0.01c0.036-0.007,0.069-0.02,0.104-0.03
			c0.021-0.007,0.041-0.011,0.061-0.019c0.038-0.016,0.072-0.037,0.107-0.057c0.015-0.01,0.03-0.016,0.045-0.025
			c0.049-0.033,0.095-0.07,0.137-0.112l2.624-2.646c0.343-0.346,0.343-0.906,0-1.252S6.341,15.51,5.999,15.855z M24.252,2.902
			L21.63,0.26c-0.042-0.043-0.09-0.082-0.14-0.116c-0.01-0.006-0.02-0.01-0.029-0.016c-0.04-0.024-0.079-0.047-0.122-0.065
			c-0.017-0.006-0.034-0.01-0.051-0.016c-0.037-0.013-0.073-0.026-0.113-0.034c-0.025-0.005-0.052-0.005-0.079-0.008
			c-0.03-0.003-0.059-0.01-0.09-0.01c-0.028,0-0.055,0.006-0.082,0.008c-0.029,0.003-0.06,0.003-0.088,0.009
			c-0.036,0.007-0.069,0.02-0.104,0.031c-0.02,0.006-0.041,0.011-0.061,0.019C20.634,0.079,20.6,0.1,20.566,0.12
			c-0.016,0.009-0.031,0.015-0.045,0.024c-0.05,0.033-0.096,0.07-0.137,0.113l-2.625,2.645c-0.343,0.346-0.343,0.906,0,1.252
			s0.899,0.346,1.242,0l1.127-1.136v6.714c0,0.489,0.394,0.885,0.878,0.885c0.485,0,0.878-0.396,0.878-0.885V3.019l1.127,1.135
			c0.343,0.346,0.898,0.346,1.241,0C24.595,3.809,24.595,3.248,24.252,2.902z M16.645,12.551H8.369c-0.508,0-0.92,0.414-0.92,0.927
			c0,0.512,0.412,0.927,0.92,0.927h8.276c0.508,0,0.92-0.415,0.92-0.927C17.565,12.965,17.153,12.551,16.645,12.551z M16.645,8.929
			H8.369c-0.508,0-0.92,0.415-0.92,0.927s0.412,0.927,0.92,0.927h8.276c0.508,0,0.92-0.415,0.92-0.927S17.153,8.929,16.645,8.929z
			 M16.645,5.308H8.369c-0.508,0-0.92,0.415-0.92,0.927s0.412,0.927,0.92,0.927h8.276c0.508,0,0.92-0.415,0.92-0.927
			S17.153,5.308,16.645,5.308z"/>
	</g>
</g>
</svg>
