<?xml version="1.0" encoding="utf-8"?>
<!-- Generator: Adobe Illustrator 16.0.4, SVG Export Plug-In . SVG Version: 6.00 Build 0)  -->
<!DOCTYPE svg PUBLIC "-//W3C//DTD SVG 1.1//EN" "http://www.w3.org/Graphics/SVG/1.1/DTD/svg11.dtd">
<svg version="1.1" id="Layer_1" xmlns="http://www.w3.org/2000/svg" xmlns:xlink="http://www.w3.org/1999/xlink" x="0px" y="0px"
	 width="26px" height="26px" viewBox="0 0 26 26" enable-background="new 0 0 26 26" xml:space="preserve">
<path fill="#445978" d="M25.5,6l-4,2c-2.051-4.214-5.325-5.585-10.377-4.892c-5.002,0.694-8.004,3.934-8.554,9.072
	c-0.75,6.938,3.526,11.821,10.129,11.821c4.752,0,7.754-2.032,9.379-6.323l-1.775-0.95h-0.025c-1.45,3.571-5.227,5.884-9.378,4.984
	c-3.076-0.668-5.577-3.237-6.228-6.424C3.57,9.843,7.572,5.038,12.698,5.038c3.227,0,5.451,1.187,6.802,3.962l-4,2
	c0.01-0.059-0.125-0.025,0,0l7,2c0.075,0.025-0.025,0.077,0,0L25.5,6C25.575,5.948,25.625,5.948,25.5,6z"/>
</svg>
