<?xml version="1.0" encoding="utf-8"?>
<!-- Generator: Adobe Illustrator 16.0.0, SVG Export Plug-In . SVG Version: 6.00 Build 0)  -->
<!DOCTYPE svg PUBLIC "-//W3C//DTD SVG 1.1//EN" "http://www.w3.org/Graphics/SVG/1.1/DTD/svg11.dtd">
<svg version="1.1" id="Layer_1" xmlns="http://www.w3.org/2000/svg" xmlns:xlink="http://www.w3.org/1999/xlink" x="0px" y="0px"
	 width="21px" height="25px" viewBox="0 0 21 25" enable-background="new 0 0 21 25" xml:space="preserve">
<g>
	<g>
		<path fill="#445978" d="M4.625,12.458h8v-1h-8V12.458z M4.625,16.459h8v-1h-8V16.459z M2.625,2.458h14v2h2v-4h-18v23h10v-2h-8
			V2.458z M4.625,8.458h8v-1h-8V8.458z M18.962,13.926c-1.104-0.647-2.644-0.23-3.819,0.533l-0.08,0.727
			c0.694-0.23,1.406-0.23,1.619,0.316c0.521,1.332-1.258,3.664-1.744,4.885c-1.32,3.312,1.848,3.697,4.105,2.332l0.087-0.787
			c-1.229,0.326-2.106-0.074-1.396-1.805C18.076,19.293,20.94,15.084,18.962,13.926z M19.037,9.458
			c-0.876,0-1.586,0.692-1.586,1.546c0,0.854,0.71,1.546,1.586,1.546s1.587-0.692,1.587-1.546
			C20.624,10.151,19.913,9.458,19.037,9.458z"/>
	</g>
</g>
</svg>
