<?xml version="1.0" encoding="utf-8"?><!DOCTYPE svg PUBLIC "-//W3C//DTD SVG 1.1//EN" "http://www.w3.org/Graphics/SVG/1.1/DTD/svg11.dtd"><svg width="145" height="139" viewBox="0 0 145 139" xmlns="http://www.w3.org/2000/svg" xmlns:xlink="http://www.w3.org/1999/xlink"><svg width="22" height="25" viewBox="0 0 22 25" id="add_details" x="54" y="26"><path clip-rule="evenodd" fill="none" stroke="#445978" stroke-miterlimit="10" d="M2 7.5h18v16H2v-16z"/><path clip-rule="evenodd" fill="none" stroke="#445978" stroke-miterlimit="10" d="M6 10.5h10v1H6v-1zM1 1.5h20v6H1v-6z"/></svg><svg width="20" height="22" viewBox="0 0 20 22" id="add_option" y="77"><path fill-rule="evenodd" clip-rule="evenodd" fill="#445978" d="M1 .5v21h13.428c.02 0 .037-.01.057-.012.168-.01.334-.07.465-.196l3.787-3.73c.152-.13.252-.315.252-.53V.5H1zm14.143 18.598v-1.355h1.377l-1.377 1.355zm2.85-2.598h-4v4h-12v-19h16v15z"/></svg><svg width="26" height="26" viewBox="0 0 26 26" id="advance_search" y="25"><path fill="#FFF" d="M19.982 18.904l-2.857-2.896c.775-1.133 1.232-2.51 1.232-3.99 0-3.87-3.11-7.018-6.932-7.018-3.82 0-6.93 3.148-6.93 7.018 0 3.873 3.108 7.02 6.93 7.02 1.053 0 2.05-.24 2.945-.668l3.068 3.108c.33.334.77.52 1.242.52.48 0 .938-.19 1.278-.54.706-.708.715-1.854.024-2.554zM7.27 12.02c0-2.322 1.866-4.21 4.158-4.21s4.158 1.888 4.158 4.21-1.865 4.212-4.158 4.212c-2.292-.002-4.158-1.89-4.158-4.212zM16.995 5V4h7v1h-7z"/><path fill="#FFF" d="M20.823 8h-1V1h1v7z"/></svg><svg width="20" height="20" viewBox="0 0 20 20" id="calender" x="20" y="119"><path fill="#A6B6D0" d="M8.008 13.778c-.532 0-.944-.41-.944-.41l-.54.866s.54.604 1.568.604c1.15 0 1.702-.783 1.702-1.568 0-.643-.43-1.182-1.11-1.33l.93-1.07v-.7H6.72v.962h1.098c.29 0 .437-.032.437-.032v.013s-.18.168-.398.432l-.605.724.237.545h.323c.494 0 .854.148.854.51 0 .248-.238.453-.656.453zm3.244-2.004c.123-.116.18-.244.18-.244h.013s-.006.18-.006.354v1.914h-.978v.964h3.058v-.964h-.983v-3.63h-.97l-1.24 1.163.65.695.275-.25zm5.573-7.04h-1.7v-1.19c0-1.128-.918-2.044-2.045-2.044-1.126 0-2.042.916-2.042 2.043v1.19H8.96v-1.19c0-1.127-.915-2.043-2.04-2.043-1.128 0-2.044.916-2.044 2.043v1.19H3.174c-.338 0-.612.275-.612.613v11.54c0 .34.274.613.612.613h13.652c.337 0 .612-.275.612-.613V5.347c0-.338-.275-.613-.613-.613zm-4.56-1.19c0-.452.364-.818.815-.818.452 0 .817.366.817.817v2.774c0 .45-.365.817-.817.817-.45 0-.815-.366-.815-.817V3.543zm-6.163 0c0-.452.366-.818.817-.818.45 0 .815.366.815.817v2.774c0 .45-.366.817-.816.817-.452 0-.818-.366-.818-.817V3.543zm10.11 12.73H3.788V8.922h12.426v7.355z"/></svg><svg width="20" height="20" viewBox="0 0 20 20" id="calender_hover" x="125" y="80"><path fill="#F68E1E" d="M8.008 13.778c-.532 0-.944-.41-.944-.41l-.54.866s.54.604 1.568.604c1.15 0 1.702-.783 1.702-1.568 0-.643-.43-1.182-1.11-1.33l.93-1.07v-.7H6.72v.962h1.098c.29 0 .437-.032.437-.032v.013s-.18.168-.398.432l-.605.724.237.545h.323c.494 0 .854.148.854.51 0 .248-.238.453-.656.453zm3.244-2.004c.123-.116.18-.244.18-.244h.013s-.006.18-.006.354v1.914h-.978v.964h3.058v-.964h-.983v-3.63h-.97l-1.24 1.163.65.695.275-.25zm5.573-7.04h-1.7v-1.19c0-1.128-.918-2.044-2.045-2.044-1.126 0-2.042.916-2.042 2.043v1.19H8.96v-1.19c0-1.127-.915-2.043-2.04-2.043-1.128 0-2.044.916-2.044 2.043v1.19H3.174c-.338 0-.612.275-.612.613v11.54c0 .34.274.613.612.613h13.652c.337 0 .612-.275.612-.613V5.347c0-.338-.275-.613-.613-.613zm-4.56-1.19c0-.452.364-.818.815-.818.452 0 .817.366.817.817v2.774c0 .45-.365.817-.817.817-.45 0-.815-.366-.815-.817V3.543zm-6.163 0c0-.452.366-.818.817-.818.45 0 .815.366.815.817v2.774c0 .45-.366.817-.816.817-.452 0-.818-.366-.818-.817V3.543zm10.11 12.73H3.788V8.922h12.426v7.355z"/></svg><svg width="26" height="26" viewBox="0 0 26 26" id="clear_file" x="54"><path fill-rule="evenodd" clip-rule="evenodd" fill="#445978" d="M24.103 1.577H8.333c-.34 0-.616.283-.616.63v8.37H8.95v-7.74h11.538v8.884c0 .25.143.474.363.576l2.634 1.217v7.802h-7.767v1.262H24.1c.34 0 .616-.282.616-.63V2.206c.002-.347-.274-.63-.613-.63zm-.618 10.552l-1.762-.816V2.84h1.762v9.29z"/><path fill="#445978" d="M7.715 10.577L.995 17.04v4.537h9.28l6.72-6.404v-4.596h-9.28zm3.68 8.402l-1.6 1.527h-7.68V17.45l2.24-2.138h7.04v3.667z"/></svg><svg width="20" height="20" viewBox="0 0 20 20" id="clone" x="125" y="20"><path fill="#A6B6D0" d="M14.198 14.83H3.282V6.97h2.515s.616-.862 1.867-1.67H2.442c-.464 0-.84.37-.84.835v9.53c0 .46.376.835.84.835h12.596c.464 0 .84-.372.84-.835v-4.768l-1.68 1.373v2.56zm-1.4-6.732v2.795l5.6-4.178-5.6-4.215v2.61c-6.77 0-6.997 7.187-6.997 7.187 1.917-3.127 3.325-4.2 7-4.2z"/></svg><svg width="20" height="20" viewBox="0 0 20 20" id="clone_hover" x="125"><path fill="#F68E1E" d="M14.198 14.83H3.282V6.97h2.515s.616-.862 1.867-1.67H2.442c-.464 0-.84.37-.84.835v9.53c0 .46.376.835.84.835h12.596c.464 0 .84-.372.84-.835v-4.768l-1.68 1.373v2.56zm-1.4-6.732v2.795l5.6-4.178-5.6-4.215v2.61c-6.77 0-6.997 7.187-6.997 7.187 1.917-3.127 3.325-4.2 7-4.2z"/></svg><svg width="20" height="20" viewBox="0 0 20 20" id="close_window" x="51" y="51"><path fill="#445978" d="M19.146 17.47L11.676 10l7.47-7.47c.464-.464.464-1.216 0-1.68-.462-.463-1.214-.463-1.678 0l-7.47 7.472L2.525.852C2.063.387 1.31.387.846.85c-.463.462-.463 1.214 0 1.678L8.32 10l-7.47 7.47c-.465.465-.465 1.215 0 1.68.463.463 1.214.463 1.678 0l7.47-7.47 7.472 7.47c.464.463 1.216.463 1.68 0 .46-.464.46-1.214-.002-1.68z"/></svg><svg width="26" height="26" viewBox="0 0 26 26" id="cog_wheel" y="51"><path fill="#FFF" d="M21.5 14.546V12.42l-2.54-1.058c-.07-.2-.146-.392-.236-.58l1.024-2.554-1.502-1.502-2.53 1.042c-.192-.094-.39-.172-.593-.245L14.046 5H11.92l-1.05 2.515c-.21.075-.414.153-.616.25L7.73 6.75 6.226 8.252l1.03 2.502c-.1.206-.182.415-.26.63L4.5 12.455v2.125L7 15.62c.077.217.16.427.26.632l-1.01 2.52 1.502 1.502 2.51-1.033c.2.097.406.173.617.245L11.953 22h2.125l1.05-2.527c.202-.074.4-.154.593-.245l2.548 1.02 1.504-1.5-1.046-2.536c.09-.19.162-.385.232-.582l2.54-1.084zm-8.517 2.142c-1.76 0-3.188-1.428-3.188-3.188s1.428-3.188 3.188-3.188S16.17 11.74 16.17 13.5s-1.427 3.188-3.187 3.188z"/></svg><svg width="20" height="20" viewBox="0 0 20 20" id="column_list" x="105"><path fill="#445978" d="M16.787.36H2.247v16.068c0 2.838 2.427 2.936 2.427 2.936h9.35c2.666 0 2.764-2.52 2.764-2.52V8.57h1.716L16.787.36zm-1.403 16.538s-.033 1.115-1.296 1.115h-9.36s-1.065-.13-1.065-1.21V1.734h11.722v15.163zM13.21 4.446H5.85v.675h7.36v-.674zm0 3.108H5.85v.653h7.36v-.653zm0 3.16H5.85v.677h7.36v-.675zm0 3.108H5.85v.654h7.36v-.654z"/></svg><svg width="28" height="25" viewBox="0 0 28 25" id="create_extensions"><path fill="#445978" d="M5.393 16.28h8v-1h-8v1zm0-4h8v-1h-8v1zm-3-10h14v2h2v-4h-18v23h10v-2h-8v-19zm14.933 17.69l6.816-10.63c-.133-.13-.262-.234-.44-.327-.128-.104-.306-.197-.474-.24l-6.79 10.625.177.7.71-.128zM5.393 8.28h8v-1h-8v1zm12.265 13.096l-1.758.99s-.142-.285-.447-.482c-.307-.197-.605-.238-.605-.238l.176-1.967.02-.03L22.19 8.47c-.628-.1-1.226.057-1.536.44l-6.517 10.195-.334 5.225c-.01.08.022.1.092.06l4.654-2.443 6.517-10.195c.195-.44.11-1.055-.215-1.59l-7.194 11.21zM26.406 4.75c-1.28-.803-2.89-.32-3.668.933L21.463 7.68s1.22-.927 2.967.197c1.98 1.232 1.465 2.612 1.465 2.612l1.252-1.99c.79-1.204.576-2.9-.74-3.75z"/></svg><svg width="20" height="20" viewBox="0 0 20 20" id="delete" x="40" y="99"><path fill="#A6B6D0" d="M16.568 4.39c-.1-.374-.167-.582-.167-.582-.107-.388-.38-.388-.79-.454l-2.212-.28c-.275-.045-.275-.045-.383-.282-.363-.817-.475-1.292-.87-1.292h-4.29c-.397 0-.505.475-.867 1.295-.11.234-.11.234-.384.284l-2.216.278c-.404.066-.696.104-.804.492 0 0-.05.17-.154.542-.133.495-.188.44.27.44h12.598c.458.004.408.055.27-.44zM15.14 6.167H4.858c-.69 0-.725.092-.683.612l.778 10.106c.068.512.118.616.73.616h8.632c.612 0 .663-.104.73-.616l.777-10.106c.042-.525.01-.612-.682-.612z"/></svg><svg width="20" height="20" viewBox="0 0 20 20" id="delete_alternative" x="105" y="60"><path fill="#445978" d="M7.7 8H6.3v8.8h1.4V8zm3 0H9.3v8.8h1.4V8zm3.2 0h-1.4v8.8h1.4V8zm-1.2-6.2V0H7.5v1.8h-6v4.4h1.6V20h14V6.2h1.4V1.8h-5.8zm-3.8-.4h2.4v.4H8.9v-.4zm6.8 17.2H4.5V6.4h11.2v12.2zm1.4-13.8H2.9V3.2h14.2v1.6z"/></svg><svg width="20" height="20" viewBox="0 0 20 20" id="delete_hover" x="100" y="99"><path fill="#F68E1E" d="M16.568 4.39c-.1-.374-.167-.582-.167-.582-.107-.388-.38-.388-.79-.454l-2.212-.28c-.275-.045-.275-.045-.383-.282-.363-.817-.475-1.292-.87-1.292h-4.29c-.397 0-.505.475-.867 1.295-.11.234-.11.234-.384.284l-2.216.278c-.404.066-.696.104-.804.492 0 0-.05.17-.154.542-.133.495-.188.44.27.44h12.598c.458.004.408.055.27-.44zM15.14 6.167H4.858c-.69 0-.725.092-.683.612l.778 10.106c.068.512.118.616.73.616h8.632c.612 0 .663-.104.73-.616l.777-10.106c.042-.525.01-.612-.682-.612z"/></svg><svg width="20" height="20" viewBox="0 0 20 20" id="download" x="60" y="77"><path fill="#A6B6D0" d="M2.533 15.366h12.8v-3.2h2.134V17.5H2.533v-2.134zm0-3.2h2.133v3.2H2.533v-3.2zM7.866 1.5h4.268v7.467h2.133L10 14.3 5.733 8.967h2.133V1.5z"/></svg><svg width="20" height="20" viewBox="0 0 20 20" id="download_hover" x="80" y="77"><path fill="#F68E1E" d="M2.533 15.366h12.8v-3.2h2.134V17.5H2.533v-2.134zm0-3.2h2.133v3.2H2.533v-3.2zM7.866 1.5h4.268v7.467h2.133L10 14.3 5.733 8.967h2.133V1.5z"/></svg><svg width="20" height="20" viewBox="0 0 20 20" id="edit" x="40" y="119"><path fill="#A6B6D0" d="M2.693 13.855l4.387 4.44H2.693v-4.44zm7.678-8.72l4.387 4.386-6.604 7.728-4.363-4.436 6.58-7.678zM12.656 2.7c.686-.684 2.002-.48 2.94.46l.85.848c.938.938 1.142 2.254.458 2.94l-1.355 1.355-4.246-4.246L12.655 2.7z"/></svg><svg width="20" height="20" viewBox="0 0 20 20" id="edit_hover" x="105" y="20"><path fill="#F68E1E" d="M2.692 13.56L7.08 18H2.69v-4.44zm7.678-8.722l4.387 4.387-6.604 7.726-4.363-4.435 6.58-7.677zm2.285-2.433c.686-.685 2.002-.48 2.94.458l.85.85c.937.937 1.142 2.253.457 2.94l-1.355 1.354-4.245-4.247 1.353-1.355z"/></svg><svg width="20" height="20" viewBox="0 0 20 20" id="export_excel" x="105" y="40"><path fill="#445978" d="M12.405 0l-.695.015H4.277c-.98 0-1.774.807-1.774 1.803v16.38c0 .995.794 1.802 1.774 1.802H15.72c.98 0 1.775-.807 1.775-1.804V5.29L12.406 0zm3.514 18.196c0 .11-.09.2-.198.2H4.277c-.11 0-.197-.09-.197-.2V1.816c0-.108.088-.198.197-.198h7.433v4.378h4.21v12.2zM10 10.124l-1.29-1.94H6.53l2.38 3.574-2.86 4.298h4.73l-.77-1.27H9.07L10 13.392l1.773 2.663h2.177l-2.862-4.298 2.38-3.573H11.29L10 10.125z"/></svg><svg width="20" height="22" viewBox="0 0 20 22" id="file" x="20" y="77"><path fill="#445978" d="M18.5 1.13v19.74c0 .35-.275.63-.615.63H2.117c-.34 0-.617-.28-.617-.63V1.13c0-.347.276-.63.617-.63h15.768c.34 0 .615.283.615.63zm-2.994.632v8.475l1.762.815v-9.29h-1.762zM2.733 20.238h14.534v-7.8l-2.633-1.22c-.22-.102-.363-.327-.363-.574V1.76H2.734V20.24z"/></svg><svg width="20" height="20" viewBox="0 0 20 20" id="filter_off" y="99"><path fill-rule="evenodd" clip-rule="evenodd" fill="#445978" d="M.38.512l7.31 7.326v11.65l4.872-3.255V7.837L19.872.51H.38zm10.558 5.46v8.684l-1.625 1.086v-9.69L4.708 1.9H15l-4.062 4.07z"/></svg><svg width="20" height="20" viewBox="0 0 20 20" id="filter_on" x="20" y="99"><path fill-rule="evenodd" clip-rule="evenodd" fill="#445978" d="M.255.512l7.31 7.326v11.65l4.873-3.256V7.838L19.746.512"/></svg><svg width="25" height="25" viewBox="0 0 25 25" id="info" x="80"><path clip-rule="evenodd" fill="none" stroke="#F68E1E" stroke-miterlimit="10" d="M12.5 1.5C18.3 1.5 23 6.2 23 12s-4.7 10.5-10.5 10.5S2 17.8 2 12 6.7 1.5 12.5 1.5z"/><path fill-rule="evenodd" clip-rule="evenodd" fill="#F68E1E" d="M11 17.5h2v-7h-2v7zm0-11v2h2v-2h-2z"/></svg><svg width="20" height="20" viewBox="0 0 20 20" id="info_alternative" x="60" y="99"><path fill="#445978" d="M17.525 14.29l-6.2-11.253c-.365-.66-.91-1.04-1.496-1.04-.587 0-1.132.38-1.497 1.04l-6.2 11.252c-.364.657-.404 1.343-.11 1.874.292.533.878.838 1.605.838h12.4c.73 0 1.312-.305 1.605-.838.297-.53.256-1.215-.108-1.875zm-1.017 1.192c-.043.076-.207.154-.48.154H3.63c-.27 0-.434-.078-.476-.154-.042-.078-.025-.266.11-.512l6.2-11.25c.135-.247.282-.357.367-.357s.23.11.366.355l6.2 11.25c.135.25.153.436.112.514zm-6.64-9.525c-.307 0-.56.108-.75.322-.188.21-.283.498-.283.858 0 .232.016.615.048 1.14l.172 2.69c.034.372.092.647.176.838.107.24.304.367.57.367.262 0 .46-.13.575-.373.093-.2.152-.47.18-.824l.23-2.76c.024-.258.036-.518.036-.77 0-.454-.056-.795-.172-1.047-.093-.202-.306-.443-.78-.443zm-.044 6.81c-.275 0-.51.1-.7.3s-.288.445-.288.73c0 .32.104.58.308.765.196.18.43.27.69.27.26 0 .49-.092.686-.273.2-.19.302-.444.302-.763 0-.285-.098-.53-.293-.73-.196-.202-.432-.3-.706-.3z"/></svg><svg width="20" height="20" viewBox="0 0 20 20" id="info_graphic" x="80" y="99"><path fill="#445978" d="M10 .502C4.763.502.502 4.762.502 10c0 5.238 4.26 9.498 9.498 9.498 5.236 0 9.498-4.26 9.498-9.498 0-5.237-4.262-9.498-9.498-9.498zm6.06 4.07L10.79 8.72V1.9c2.085.2 3.94 1.192 5.267 2.67zM1.86 10c0-4.3 3.35-7.827 7.574-8.12v8.233h.04l-.035.027 5.274 6.49c-1.33.95-2.958 1.51-4.714 1.51-4.49 0-8.14-3.65-8.14-8.14zm13.89 5.756l-4.563-5.616 5.69-4.487c.8 1.26 1.264 2.75 1.264 4.348 0 2.246-.913 4.28-2.39 5.756z"/></svg><svg width="20" height="22" viewBox="0 0 20 22" id="move_task" x="40" y="77"><path fill-rule="evenodd" clip-rule="evenodd" fill="#445978" d="M12.625 10.89l5.377-5.274L12.625.343v4.182H2v2.182h10.625v4.182zm-5.248 3.807v-4.355l-5.375 5.492 5.375 5.492V16.97h10.626V14.7H7.377z"/></svg><svg width="25" height="20" viewBox="0 0 25 20" id="multisort_off" x="26" y="51"><path fill="#445978" d="M6 15.855L4.87 16.992v-6.715c0-.49-.393-.885-.878-.885-.484 0-.878.396-.878.885v6.714L1.99 15.856c-.344-.346-.9-.346-1.242 0s-.343.906 0 1.252L3.37 19.75c.043.044.09.082.14.116.01.007.02.01.03.017.038.023.08.047.12.064l.052.016c.037.013.074.025.113.033.026.005.053.006.08.008.03.004.06.01.09.01.027 0 .055-.006.082-.008.028-.003.06-.004.087-.01.036-.007.07-.02.104-.03.02-.007.04-.01.06-.02.04-.015.073-.036.108-.056.015-.01.03-.016.045-.025.05-.033.096-.07.138-.112l2.624-2.646c.343-.346.343-.906 0-1.252s-.9-.345-1.243 0zM24.25 2.902L21.63.26c-.042-.043-.09-.082-.14-.116l-.03-.016c-.04-.024-.078-.047-.12-.065l-.052-.016c-.037-.013-.073-.026-.113-.034-.025-.005-.052-.005-.08-.008-.03-.003-.058-.01-.09-.01-.027 0-.054.006-.08.008-.03.003-.06.003-.09.01-.035.006-.068.02-.103.03-.02.006-.04.01-.06.02-.038.016-.072.037-.106.057-.016.01-.03.015-.045.024-.05.033-.095.07-.136.113L17.76 2.902c-.344.346-.344.906 0 1.252s.898.346 1.24 0l1.128-1.136v6.714c0 .49.394.885.878.885.485 0 .878-.396.878-.885V3.02l1.127 1.134c.344.346.9.346 1.242 0 .343-.345.343-.906 0-1.252zm-7.607 9.65H8.37c-.51 0-.92.413-.92.926 0 .512.41.927.92.927h8.275c.508 0 .92-.415.92-.927 0-.513-.412-.927-.92-.927zm0-3.623H8.37c-.51 0-.92.414-.92.926s.41.927.92.927h8.275c.508 0 .92-.415.92-.927s-.412-.927-.92-.927zm0-3.622H8.37c-.51 0-.92.415-.92.927s.41.927.92.927h8.275c.508 0 .92-.415.92-.927s-.412-.927-.92-.927z"/></svg><svg width="25" height="20" viewBox="0 0 25 20" id="multisort_on" x="28" y="26"><path fill="#445978" d="M6 15.855L4.87 16.992v-6.715c0-.49-.393-.885-.878-.885-.484 0-.878.396-.878.885v6.714L1.99 15.856c-.344-.347-.9-.347-1.242 0-.343.346-.343.905 0 1.252L3.37 19.75c.043.044.09.082.14.116.01.007.02.01.03.017.038.023.08.047.12.064l.052.016c.037.014.074.025.113.033.026.005.053.006.08.008.03.004.06.01.09.01.027 0 .055-.006.082-.008.028-.003.06-.004.087-.01.036-.007.07-.02.104-.03.02-.007.04-.01.06-.02.04-.015.073-.036.108-.056.015-.01.03-.017.045-.025.05-.033.096-.07.138-.112l2.624-2.646c.343-.347.343-.906 0-1.252s-.9-.345-1.243 0zM24.25 2.902L21.63.26c-.042-.043-.09-.082-.14-.116l-.03-.016c-.04-.024-.078-.047-.12-.065l-.052-.016c-.037-.013-.073-.026-.113-.034-.024-.005-.052-.005-.08-.008-.028-.003-.058-.01-.09-.01-.026 0-.054.006-.08.008-.03.003-.06.003-.09.01-.035.006-.067.02-.103.03-.02.006-.04.01-.062.02-.036.016-.07.037-.104.057l-.045.024c-.05.033-.096.07-.137.113l-2.625 2.645c-.343.346-.343.906 0 1.252s.9.346 1.242 0l1.127-1.136v6.714c0 .49.394.885.878.885.485 0 .878-.396.878-.885V3.02l1.128 1.134c.343.346.898.346 1.24 0 .346-.345.346-.906.002-1.252zm-7.607 9.65H8.37c-.51 0-.92.413-.92.927 0 .51.41.925.92.925h8.274c.508 0 .92-.414.92-.926 0-.515-.412-.93-.92-.93zm0-3.623H8.37c-.51 0-.92.414-.92.926s.41.927.92.927h8.274c.508 0 .92-.415.92-.927s-.412-.927-.92-.927zm0-3.622H8.37c-.51 0-.92.415-.92.927s.41.927.92.927h8.274c.508 0 .92-.415.92-.927s-.412-.927-.92-.927z"/><circle fill="#445978" cx="20.729" cy="16.127" r="2"/></svg><svg width="20" height="20" viewBox="0 0 20 20" id="play" x="125" y="40"><path fill="#A6B6D0" d="M10.145 1.912C5.73 1.912 2.15 5.532 2.15 10c0 4.467 3.58 8.088 7.995 8.088 4.416 0 7.994-3.62 7.994-8.088 0-4.467-3.58-8.088-7.995-8.088zm3.998 8.448c0-.007-6.666 3.683-6.666 3.683-.22 0-.396-.178-.396-.4V6.356c0-.22.18-.4.397-.4l6.666 3.684c.712.388 0 .72 0 .72z"/></svg><svg width="20" height="20" viewBox="0 0 20 20" id="play_hover" x="125" y="60"><path fill="#F68E1E" d="M9.5 1.913c-4.415 0-7.994 3.62-7.994 8.087s3.58 8.088 7.994 8.088 7.994-3.62 7.994-8.088-3.58-8.087-7.994-8.087zm3.997 8.447c0-.007-6.665 3.684-6.665 3.684-.22 0-.396-.18-.396-.4V6.356c0-.22.178-.4.396-.4l6.665 3.684c.714.39 0 .72 0 .72z"/></svg><svg width="26" height="26" viewBox="0 0 26 26" id="refresh" x="28"><path fill="#445978" d="M25.5 6l-4 2c-2.05-4.214-5.325-5.585-10.377-4.892C6.12 3.802 3.12 7.042 2.57 12.18 1.82 19.118 6.094 24 12.697 24c4.752 0 7.754-2.03 9.38-6.322l-1.776-.95h-.025c-1.45 3.57-5.227 5.884-9.378 4.984-3.077-.668-5.578-3.237-6.23-6.424-1.1-5.445 2.902-10.25 8.028-10.25 3.227 0 5.45 1.187 6.802 3.962l-4 2c.01-.06-.125-.025 0 0l7 2c.075.025-.025.077 0 0l3-7c.075-.052.125-.052 0 0z"/></svg><svg width="20" height="20" viewBox="0 0 20 20" id="sort" y="119"><path clip-rule="evenodd" fill="none" stroke="#445978" stroke-miterlimit="10" d="M10 1.188c4.694 0 8.5 3.806 8.5 8.5s-3.806 8.5-8.5 8.5-8.5-3.806-8.5-8.5 3.806-8.5 8.5-8.5z"/><path fill="#445978" d="M12.49 10.17l-2.498-4-2.496 4H9.5v3.018h1V10.17"/></svg><svg width="21" height="25" viewBox="0 0 21 25" id="task_info" x="80" y="50"><path fill="#445978" d="M4.625 12.458h8v-1h-8v1zm0 4h8v-1h-8v1zm-2-14h14v2h2v-4h-18v23h10v-2h-8v-19zm2 6h8v-1h-8v1zm14.337 5.468c-1.104-.647-2.644-.23-3.82.533l-.08.726c.695-.23 1.407-.23 1.62.316.52 1.332-1.258 3.664-1.744 4.885-1.32 3.312 1.848 3.697 4.105 2.332l.087-.788c-1.23.326-2.106-.074-1.396-1.805.342-.834 3.206-5.043 1.228-6.2zm.075-4.468c-.876 0-1.586.692-1.586 1.546 0 .854.71 1.546 1.587 1.546s1.587-.692 1.587-1.546c0-.853-.71-1.546-1.587-1.546z"/></svg><svg width="20" height="25" viewBox="0 0 20 25" id="task_issues" x="80" y="25"><path fill-rule="evenodd" clip-rule="evenodd" fill="#445978" d="M15.5 9.5h-7v1h7v-1zm0-3h-7v1h7v-1zm-11-6v4h-4v20h15v-4h4V.5h-15zm9 22h-11v-16h2v14h9v2zm4-4h-11v-16h11v16zm-2-6h-7v1h7v-1z"/></svg></svg>